<?xml version="1.0" encoding="utf-8"?>
<!-- Generator: Adobe Illustrator 16.0.0, SVG Export Plug-In . SVG Version: 6.00 Build 0)  -->
<!DOCTYPE svg PUBLIC "-//W3C//DTD SVG 1.1//EN" "http://www.w3.org/Graphics/SVG/1.1/DTD/svg11.dtd">
<svg version="1.1" id="Layer_1" xmlns="http://www.w3.org/2000/svg" xmlns:xlink="http://www.w3.org/1999/xlink" x="0px" y="0px"
	 width="612px" height="792px" viewBox="0 0 612 792" enable-background="new 0 0 612 792" xml:space="preserve">
<g>
	<path fill="#FFFFFF" d="M306,44.1c-151.855,0-275.4,123.544-275.4,275.4S154.145,594.9,306,594.9s275.4-123.545,275.4-275.4
		S457.855,44.1,306,44.1z M306,564.3c-134.983,0-244.8-109.817-244.8-244.8C61.2,184.517,171.017,74.7,306,74.7
		c134.982,0,244.8,109.817,244.8,244.8C550.8,454.482,440.982,564.3,306,564.3z"/>
	<circle fill="#FFFFFF" cx="414.686" cy="268.086" r="34.78"/>
	<circle fill="#FFFFFF" cx="197.315" cy="268.086" r="34.78"/>
	<path fill="#FFFFFF" d="M404.501,374.617c-55.232,49.236-141.77,49.236-197.002,0c-6.304-5.625-15.979-5.073-21.604,1.242
		c-5.625,6.31-5.067,15.979,1.242,21.604c33.324,29.7,76.096,44.56,118.863,44.56s85.539-14.854,118.862-44.56
		c6.31-5.625,6.867-15.294,1.243-21.604C420.48,369.543,410.805,368.992,404.501,374.617z"/>
</g>
</svg>
